[imghttp://img864.imageshack.us/img864/9863/95237900402184320293.jpg][/img]



[img]http://leetleech.org/images/48874973695367351744.png[/img]


Format                           : AVI
Format/Info                      : Audio Video Interleave
File size                        : 751 MiB
Duration                         : 1h 53mn
Overall bit rate                 : 926 Kbps
Writing application              : VirtualDubMod 1.5.10.2 (build 2540/release)
Writing library                  : VirtualDub build 32839/release

Video
ID                               : 0
Format                           : MPEG-4 Visual
Format profile                   : Advanced Simple@L5
Format settings, BVOP            : Yes
Format settings, QPel            : No
Format settings, GMC             : No warppoints
Format settings, Matrix          : Custom
Codec ID                         : XVID
Codec ID/Hint                    : XviD
Duration                         : 1h 53mn
Bit rate                         : 778 Kbps
Width                            : 692 pixels
Height                           : 294 pixels
Display aspect ratio             : 2.35:1
Frame rate                       : 23.976 fps
Color space                      : YUV
Chroma subsampling               : 4:2:0
Bit depth                        : 8 bits
Scan type                        : Progressive
Bits/(Pixel*Frame)               : 0.160
Stream size                      : 631 MiB (84%)
Writing library                  : XviD 1.2.1 (UTC 2008-12-04)

Audio
ID                               : 1
Format                           : MPEG Audio
Format version                   : Version 1
Format profile                   : Layer 3
Mode                             : Joint stereo
Mode extension                   : MS Stereo
Codec ID                         : 55
Codec ID/Hint                    : MP3
Duration                         : 1h 53mn
Bit rate mode                    : Variable
Bit rate                         : 135 Kbps
Minimum bit rate                 : 32.0 Kbps
Channel(s)                       : 2 channels
Sampling rate                    : 48.0 KHz
Stream size                      : 109 MiB (15%)
Alignment                        : Aligned on interleaves
Interleave, duration             : 24 ms (0.58 video frame)
Interleave, preload duration     : 136 ms
Writing library                  : LAME3.98r
Encoding settings                : -m j -V 4 -q 0 -lowpass 17.5 --vbr-new -b 32




[url]http://www.imdb.com/title/tt1161864/[/url]




[IMG]http://leetleech.org/images/89524873606771859129.png[/IMG]


Users: 6.1/10 (5,595 votes) 82 reviews | Critics: 167 reviews Metascore: 38/100 (based on 33 reviews from Metacritic.com)

An American seminary student travels to Italy to take an exorcism course.
Director:
Mikael Håfström
Writers:
Michael Petroni, Matt Baglio (book) (suggestion)
Stars:
Colin O'Donoghue, Anthony Hopkins and Ciarán Hinds




[img]http://leetleech.org/images/95521316153253938506.png[/img]




[img]http://img862.imageshack.us/img862/7640/vlcsnap2011041413h32m36.png[/img]

[img]http://img15.imageshack.us/img15/3880/vlcsnap2011041413h33m45.png[/img]

[img]http://img852.imageshack.us/img852/8167/vlcsnap2011041413h33m53.png[/img]







Greetz to Imagine ,Flawl3ss,DiLLoN,BDK,NOiR,TOXiCiNK,THC,Ez,Rx,Boobyblue





[img]http://img411.imageshack.us/img411/6898/sig1n.jpg[/img]




